<svg xmlns="http://www.w3.org/2000/svg" viewBox="0 0 237.44 69.63"><path d="M137.62 69.63c-.59 0-1.13-.11-1.63-.32a3.953 3.953 0 01-2.17-2.23c-.2-.52-.3-1.08-.3-1.69s.1-1.17.3-1.69a3.905 3.905 0 012.17-2.22c.5-.21 1.04-.32 1.63-.32s1.14.11 1.64.32c.5.21.93.51 1.3.89s.65.83.86 1.34c.2.51.3 1.07.3 1.68s-.1 1.16-.3 1.68c-.2.52-.49.97-.86 1.35-.37.38-.8.68-1.3.89-.5.21-1.05.32-1.64.32zm0-1.45c.38 0 .72-.07 1.03-.21.31-.14.58-.33.8-.59s.4-.55.53-.89.19-.7.19-1.1-.06-.77-.19-1.1c-.13-.34-.31-.63-.53-.89s-.49-.45-.8-.59c-.31-.14-.65-.21-1.03-.21s-.71.07-1.02.21-.58.33-.81.58c-.23.25-.4.54-.53.88-.12.34-.19.71-.19 1.11s.06.77.19 1.11.3.64.53.89a2.45 2.45 0 001.83.79zm5.1-3.45v-1.27h3.81v1.27h-3.81zm.96 4.78v-6.73c0-.38.08-.71.25-1s.39-.52.68-.69c.29-.17.63-.25 1.01-.25.27 0 .51.04.74.13.23.09.42.21.58.37l-.45 1.09c-.1-.09-.21-.15-.32-.2s-.22-.07-.32-.07c-.16 0-.29.03-.39.08s-.18.13-.23.23c-.05.1-.08.22-.08.36v6.68h-1.45zm3.65-4.78v-1.27h3.81v1.27h-3.81zm.96 4.78v-6.73c0-.38.08-.71.25-1s.39-.52.68-.69c.29-.17.63-.25 1.01-.25.27 0 .51.04.74.13.23.09.42.21.58.37l-.45 1.09c-.1-.09-.21-.15-.32-.2s-.22-.07-.32-.07c-.16 0-.29.03-.39.08s-.18.13-.23.23c-.05.1-.08.22-.08.36v6.68h-1.45zm4.91-7.49c-.29 0-.51-.07-.67-.22s-.24-.35-.24-.62c0-.25.08-.45.25-.61.17-.16.39-.23.67-.23.3 0 .53.07.69.22s.24.35.24.63c0 .24-.08.44-.25.6s-.39.23-.68.23zm-.7 7.49v-6.18h1.44v6.18h-1.44zm5.92.12c-.58 0-1.1-.14-1.56-.42-.46-.28-.83-.67-1.09-1.15s-.4-1.03-.4-1.64.13-1.16.4-1.64.63-.87 1.09-1.15c.46-.28.98-.42 1.56-.42s1.06.11 1.51.32c.45.21.8.5 1.05.88l-.8.96a2.394 2.394 0 00-1.02-.77c-.2-.08-.41-.12-.61-.12-.34 0-.65.08-.92.25s-.48.4-.64.69c-.16.29-.24.62-.24.99s.08.7.24.99c.16.29.38.52.65.69s.58.26.92.26c.2 0 .4-.03.59-.1s.37-.16.54-.29.33-.28.48-.47l.8.97c-.27.34-.63.62-1.1.84-.47.21-.96.32-1.47.32zm4.54-7.61c-.29 0-.51-.07-.67-.22s-.24-.35-.24-.62c0-.25.08-.45.25-.61.17-.16.39-.23.67-.23.3 0 .53.07.69.22s.24.35.24.63c0 .24-.08.44-.25.6s-.39.23-.68.23zm-.7 7.49v-6.18h1.44v6.18h-1.44zm5.6.12c-.51 0-.97-.14-1.38-.42-.41-.28-.75-.67-1-1.15-.25-.48-.38-1.04-.38-1.65s.12-1.17.38-1.65c.25-.48.59-.86 1.02-1.14.43-.27.92-.41 1.45-.41.31 0 .6.04.86.13s.48.22.68.38.36.35.49.56c.13.21.22.44.26.68l-.32-.08v-1.55h1.45v6.18h-1.46v-1.48l.34-.06c-.05.21-.15.42-.3.62-.14.2-.32.38-.54.53s-.45.28-.71.37c-.26.09-.54.14-.84.14zm.4-1.28c.34 0 .63-.08.89-.25s.46-.39.6-.69c.14-.29.22-.63.22-1.01s-.07-.71-.22-1c-.14-.29-.35-.52-.6-.68s-.56-.25-.89-.25-.63.08-.88.25-.45.39-.59.68c-.14.29-.21.62-.21 1s.07.72.21 1.01c.14.29.34.52.59.69s.55.25.88.25zm4.81 1.16v-8.68h1.45v8.68h-1.45zm6.86 0V61.3h3.41c.47 0 .89.11 1.27.34.38.23.68.54.91.93.23.39.34.83.34 1.31a2.608 2.608 0 01-1.25 2.27c-.38.23-.8.35-1.27.35h-1.89v3h-1.52zm1.52-4.41h1.78c.2 0 .37-.05.53-.16s.29-.25.39-.43.15-.38.15-.61-.05-.43-.15-.6-.23-.32-.39-.42-.34-.16-.53-.16h-1.78v2.39zm7.99 4.53c-.51 0-.97-.14-1.38-.42s-.75-.67-1-1.15c-.25-.48-.38-1.04-.38-1.65s.12-1.17.38-1.65c.25-.48.59-.86 1.02-1.14s.92-.41 1.45-.41c.31 0 .6.04.86.13s.48.22.68.38.36.35.49.56c.13.21.22.44.26.68l-.32-.08v-1.55h1.45v6.18h-1.47v-1.48l.34-.06c-.05.21-.16.42-.3.62-.14.2-.32.38-.54.53s-.45.28-.71.37c-.26.09-.54.14-.84.14zm.4-1.28c.34 0 .63-.08.89-.25s.46-.39.6-.69c.14-.29.22-.63.22-1.01s-.07-.71-.22-1c-.14-.29-.35-.52-.6-.68s-.56-.25-.89-.25-.63.08-.88.25-.45.39-.59.68c-.14.29-.21.62-.21 1s.07.72.21 1.01c.14.29.34.52.59.69s.55.25.88.25zm4.79 1.16v-6.18h1.42l.02 1.97-.2-.45c.09-.31.24-.59.45-.84.21-.25.46-.45.73-.59s.57-.22.87-.22c.13 0 .26.01.38.04s.22.05.3.08l-.39 1.58c-.09-.05-.19-.09-.32-.12s-.25-.05-.38-.05c-.2 0-.38.04-.56.11s-.33.18-.46.31-.24.29-.31.46c-.08.18-.11.37-.11.59v3.29h-1.45zm4.62-4.84v-1.34h4.01v1.34h-4.01zm1.22 4.84v-7.75h1.44v7.75h-1.44zm3.9 0v-6.18h1.41l.02 1.27-.27.14c.08-.28.23-.54.46-.77.23-.23.5-.42.81-.56s.63-.21.96-.21c.47 0 .86.09 1.18.28.32.19.55.47.71.84.16.38.24.84.24 1.41v3.78h-1.44v-3.67c0-.31-.04-.57-.13-.78s-.22-.36-.4-.46-.4-.14-.66-.13c-.21 0-.4.03-.58.1s-.33.16-.46.28-.23.26-.3.42c-.08.16-.11.33-.11.52v3.73h-1.44zm10.03.12c-.65 0-1.22-.14-1.72-.41-.5-.27-.88-.65-1.16-1.12-.28-.47-.42-1.01-.42-1.62 0-.48.08-.93.23-1.33s.37-.74.65-1.04c.28-.29.61-.52 1-.68.39-.16.81-.24 1.27-.24a2.821 2.821 0 012.06.87c.26.27.46.59.59.96s.2.78.19 1.21v.5h-5.02l-.27-.98h4.07l-.19.2v-.26c-.02-.24-.1-.46-.23-.64s-.3-.33-.51-.43-.44-.16-.69-.16c-.38 0-.71.07-.97.22s-.46.36-.59.64c-.13.28-.2.62-.2 1.04s.08.75.25 1.04c.17.3.41.53.72.69s.67.24 1.08.24c.29 0 .55-.05.8-.14s.5-.26.79-.5l.71 1c-.21.2-.45.36-.72.5-.27.14-.55.24-.85.32s-.59.12-.88.12zm3.98-.12v-6.18h1.42l.02 1.97-.2-.45c.09-.31.24-.59.45-.84.21-.25.46-.45.73-.59s.57-.22.87-.22c.13 0 .26.01.38.04s.22.05.3.08l-.39 1.58c-.09-.05-.19-.09-.32-.12s-.25-.05-.38-.05c-.2 0-.38.04-.56.11s-.33.18-.46.31-.24.29-.31.46c-.08.18-.11.37-.11.59v3.29h-1.45z" fill="#fff"/><path d="M33.26 0C14.89 0 0 14.89 0 33.26s14.89 33.26 33.26 33.26 33.26-14.89 33.26-33.26S51.63 0 33.26 0zm15.25 47.97c-.6.98-1.87 1.29-2.85.69-7.81-4.77-17.64-5.85-29.22-3.2-1.12.25-2.23-.44-2.48-1.56a2.06 2.06 0 011.56-2.48c12.67-2.89 23.54-1.65 32.3 3.71.98.6 1.29 1.87.69 2.85zm4.07-9.06a2.588 2.588 0 01-3.57.85c-8.94-5.49-22.57-7.09-33.14-3.88-1.37.41-2.82-.36-3.24-1.73-.41-1.37.36-2.82 1.73-3.23 12.08-3.66 27.09-1.89 37.36 4.42 1.22.75 1.6 2.35.85 3.56zm.35-9.43c-10.72-6.37-28.4-6.95-38.64-3.85-1.64.5-3.38-.43-3.88-2.07s.43-3.38 2.07-3.88c11.75-3.57 31.28-2.88 43.62 4.45 1.48.88 1.97 2.79 1.09 4.26a3.103 3.103 0 01-4.26 1.09z" fill="#1ed760"/><path d="M88.14 30.41c-5.95-1.42-7.01-2.41-7.01-4.51 0-1.98 1.86-3.31 4.63-3.31s5.34 1.01 8.13 3.09c.08.06.19.09.29.07.11-.02.2-.07.26-.16l2.9-4.09a.39.39 0 00-.07-.53c-3.32-2.66-7.06-3.96-11.42-3.96-6.42 0-10.91 3.85-10.91 9.37 0 5.91 3.87 8.01 10.56 9.62 5.69 1.31 6.65 2.41 6.65 4.37 0 2.18-1.94 3.53-5.07 3.53-3.47 0-6.31-1.17-9.47-3.91a.378.378 0 00-.28-.09c-.11 0-.2.06-.27.14l-3.26 3.88c-.14.16-.12.4.04.54 3.69 3.29 8.22 5.03 13.11 5.03 6.92 0 11.39-3.78 11.39-9.63.01-4.94-2.95-7.67-10.19-9.44h-.01zm79.62-5.37h-5.86v-5.99a.39.39 0 00-.39-.39h-5.33c-.21 0-.39.18-.39.39v5.99h-2.56c-.21 0-.39.18-.39.39v4.58c0 .21.17.39.39.39h2.56v11.85c0 4.78 2.38 7.21 7.08 7.21 1.91 0 3.49-.39 4.99-1.24a.4.4 0 00.2-.34v-4.36c0-.13-.07-.26-.19-.33a.396.396 0 00-.38-.02c-1.02.51-2.02.75-3.13.75-1.71 0-2.47-.78-2.47-2.51V30.4h5.86c.21 0 .39-.18.39-.39v-4.58c0-.22-.16-.39-.38-.39zm20.42.02v-.74c0-2.17.83-3.13 2.69-3.13 1.11 0 2 .22 3 .55.12.04.25.02.35-.05.1-.07.16-.19.16-.32v-4.49c0-.17-.11-.32-.28-.37-1.05-.31-2.4-.64-4.43-.64-4.92 0-7.52 2.77-7.52 8.01v1.13h-2.56c-.21 0-.39.18-.39.39V30c0 .21.18.39.39.39h2.56v18.27c0 .22.18.39.39.39h5.32c.22 0 .39-.17.39-.39V30.39h4.97l7.62 18.27c-.86 1.92-1.72 2.3-2.88 2.3-.94 0-1.93-.28-2.94-.84a.416.416 0 00-.31-.03c-.1.04-.19.11-.23.21l-1.81 3.96c-.09.19-.01.41.17.51 1.88 1.02 3.58 1.46 5.69 1.46 3.93 0 6.11-1.83 8.02-6.76l9.24-23.87c.05-.12.03-.26-.04-.36a.373.373 0 00-.32-.17h-5.55c-.17 0-.32.11-.37.26l-5.68 16.22-6.22-16.23a.389.389 0 00-.36-.25h-9.1zm-11.84-.02h-5.33c-.21 0-.39.18-.39.39v23.23c0 .22.18.39.39.39h5.33c.21 0 .39-.17.39-.39V25.43c0-.22-.17-.39-.39-.39zm-2.63-10.58a3.82 3.82 0 100 7.64 3.82 3.82 0 000-7.64zM114 24.55c-3 0-5.46 1.18-7.49 3.6v-2.72c0-.22-.17-.39-.39-.39h-5.33c-.21 0-.39.18-.39.39v30.28c0 .21.17.39.39.39h5.33c.21 0 .39-.18.39-.39v-9.56c2.03 2.27 4.49 3.39 7.49 3.39 5.57 0 11.22-4.29 11.22-12.49s-5.64-12.5-11.21-12.5zm5.02 12.5c0 4.18-2.57 7.09-6.26 7.09s-6.39-3.05-6.39-7.09 2.75-7.09 6.39-7.09c3.62 0 6.26 2.98 6.26 7.09zm20.65-12.5c-7.18 0-12.8 5.53-12.8 12.58s5.59 12.45 12.72 12.45 12.84-5.51 12.84-12.54-5.6-12.49-12.76-12.49zm0 19.63c-3.82 0-6.7-3.07-6.7-7.13s2.78-7.05 6.61-7.05 6.74 3.07 6.74 7.14-2.8 7.05-6.65 7.05zm80.72-19.19c-2.11 0-3.77 1.71-3.77 3.77s1.64 3.75 3.75 3.75 3.77-1.71 3.77-3.77-1.64-3.75-3.75-3.75zm-.02 7.14c-1.91 0-3.35-1.51-3.35-3.37s1.45-3.4 3.37-3.4 3.35 1.51 3.35 3.37-1.45 3.4-3.37 3.4z" fill="#fff"/><path d="M221.22 29.12c.54-.16.91-.55.91-1.2 0-.79-.6-1.26-1.52-1.26h-1.75v3.93h.75v-1.36h.82l.95 1.36h.9l-1.06-1.48zm-.63-.53h-.97v-1.24h.97c.49 0 .78.22.78.62s-.29.62-.78.62z" fill="#fff"/><path d="M236.28 45.15l-.78-.78v-1.11c0-2.19-1.78-3.97-3.97-3.97h-1.11l-.78-.78a3.965 3.965 0 00-5.61 0l-.78.78h-1.11c-2.19 0-3.97 1.78-3.97 3.97v1.11l-.78.78a3.965 3.965 0 000 5.61l.78.78v1.11c0 2.19 1.78 3.97 3.97 3.97h1.11l.78.78a3.965 3.965 0 005.61 0l.78-.78h1.11c2.19 0 3.97-1.78 3.97-3.97v-1.11l.78-.78a3.965 3.965 0 000-5.61z" fill="#3882ff"/><path d="M230.33 45.49a.622.622 0 00-.89 0l-3.75 3.75-1.2-1.2c-.25-.25-.65-.25-.89 0s-.25.65 0 .89l1.65 1.65c.25.25.65.25.89 0l4.2-4.2c.25-.25.25-.65 0-.89z" fill="#fff"/></svg>