<svg width="145" height="33" xmlns="http://www.w3.org/2000/svg" xmlns:xlink="http://www.w3.org/1999/xlink"><defs><path id="a" d="M.05.24h12.407v21.055H.05z"/></defs><g fill="none" fill-rule="evenodd"><path d="M23.402.37c2.119.006 14.444.083 17.732.973a5.811 5.811 0 014.084 4.121c.893 3.366.96 10.118.964 11.1v.24c-.005.982-.07 7.735-.964 11.1a5.812 5.812 0 01-4.084 4.122c-3.34.904-16.007.97-17.825.974h-.436c-1.818-.005-14.484-.07-17.825-.974a5.812 5.812 0 01-4.083-4.122C.089 24.606.008 18.055.001 16.87v-.372c.007-1.184.088-7.735.964-11.034a5.811 5.811 0 014.083-4.121C8.337.453 20.662.376 22.78.369zM18.73 9.81v14.271l11.594-7.135L18.73 9.81zm53.053 16.508c.25-.645.376-1.7.376-3.165v-6.17c0-1.422-.126-2.46-.376-3.118-.25-.657-.692-.985-1.324-.985-.61 0-1.04.328-1.29.985-.252.657-.376 1.696-.376 3.117v6.17c0 1.466.119 2.52.359 3.166.24.647.675.97 1.307.97.632 0 1.073-.323 1.324-.97m-5.066 3.102c-.905-.602-1.548-1.54-1.929-2.81-.381-1.271-.572-2.962-.572-5.073v-2.875c0-2.132.218-3.844.654-5.136.435-1.292 1.116-2.234 2.043-2.827.926-.592 2.141-.888 3.644-.888 1.482 0 2.67.301 3.563.905.894.602 1.547 1.545 1.962 2.826.413 1.281.62 2.988.62 5.12v2.875c0 2.111-.201 3.808-.604 5.089-.403 1.28-1.057 2.218-1.961 2.81-.905.592-2.13.888-3.678.888-1.59 0-2.838-.301-3.742-.904" fill="#FFF"/><g transform="translate(132 9.81)"><mask id="b" fill="#fff"><use xlink:href="#a"/></mask><path d="M5.22 3.76c-.237.289-.396.76-.475 1.412-.08.653-.119 1.644-.119 2.972v1.461H8.05V8.144c0-1.306-.045-2.296-.135-2.972-.091-.675-.255-1.15-.492-1.428-.237-.277-.605-.415-1.102-.415-.497 0-.864.144-1.102.432zm-.594 8.568v1.03c0 1.306.04 2.286.119 2.939.079.653.242 1.129.492 1.428.248.298.632.448 1.152.448.7 0 1.18-.265 1.44-.797.26-.531.402-1.417.424-2.657l4.035.233c.022.177.033.42.033.73 0 1.882-.525 3.288-1.576 4.218-1.05.93-2.537 1.395-4.458 1.395-2.305 0-3.92-.708-4.848-2.126C.512 17.753.05 15.561.05 12.594V9.041c0-3.055.48-5.285 1.442-6.692C2.45.944 4.095.241 6.423.241c1.604 0 2.836.288 3.695.863.858.576 1.463 1.473 1.814 2.69.35 1.218.525 2.9.525 5.048v3.486h-7.83z" fill="#FFF" mask="url(#b)"/></g><path d="M56.105 21.36L50.838 2.676h4.595l1.845 8.469c.47 2.087.817 3.867 1.04 5.338h.135c.156-1.054.503-2.823 1.04-5.305l1.911-8.502H66L60.667 21.36v8.964h-4.562V21.36zm35.76-11.55v20.185h-3.606l-.4-2.47h-.1c-.98 1.867-2.45 2.8-4.408 2.8-1.357 0-2.359-.44-3.005-1.318-.645-.878-.968-2.25-.968-4.115V9.81h4.608v14.817c0 .9.1 1.542.3 1.926.2.385.534.576 1.002.576.4 0 .784-.12 1.151-.362a2.25 2.25 0 00.819-.922V9.811h4.607zm23.189 0v20.185h-3.606l-.4-2.47h-.1c-.98 1.867-2.45 2.8-4.408 2.8-1.357 0-2.359-.44-3.004-1.318-.646-.878-.968-2.25-.968-4.115V9.81h4.607v14.817c0 .9.1 1.542.3 1.926.2.385.534.576 1.002.576.4 0 .785-.12 1.152-.362.367-.241.64-.548.818-.922V9.811h4.607z" fill="#FFF"/><path fill="#FFF" d="M104.351 6.334h-4.48v23.99h-4.417V6.334h-4.481V2.676h13.378zm21.369 15.095c0 1.45-.06 2.587-.178 3.41-.119.822-.318 1.407-.599 1.752-.28.347-.658.52-1.132.52a2.06 2.06 0 01-1.018-.26 1.95 1.95 0 01-.76-.78V14.774c.15-.541.408-.985.776-1.332.366-.345.764-.52 1.196-.52.453 0 .804.18 1.052.537.248.357.42.957.517 1.802.097.844.146 2.045.146 3.604v2.565zm4.092-8.119c-.27-1.255-.707-2.164-1.31-2.727-.604-.562-1.435-.844-2.491-.844-.82 0-1.585.233-2.297.698a4.735 4.735 0 00-1.65 1.835h-.032V1.784h-4.302v28.248h3.687l.453-1.883h.097c.345.67.862 1.201 1.553 1.59a4.59 4.59 0 002.297.585c1.509 0 2.62-.698 3.332-2.094.711-1.396 1.067-3.577 1.067-6.543v-3.149c0-2.23-.135-3.972-.404-5.228z"/></g></svg>